<?xml version="1.0" standalone="no"?>
<!DOCTYPE svg PUBLIC "-//W3C//DTD SVG 20010904//EN"
 "http://www.w3.org/TR/2001/REC-SVG-20010904/DTD/svg10.dtd">
<svg version="1.0" xmlns="http://www.w3.org/2000/svg"
 width="512.000000pt" height="512.000000pt" viewBox="0 0 512.000000 512.000000"
 preserveAspectRatio="xMidYMid meet">
<metadata>
Created by potrace 1.14, written by Peter Selinger 2001-2017
</metadata>
<g transform="translate(0.000000,512.000000) scale(0.100000,-0.100000)"
fill="#000000" stroke="none">
<path d="M549 5116 c-2 -2 -17 -7 -34 -9 -225 -41 -416 -217 -491 -452 -18
-57 -19 -102 -19 -880 l0 -820 22 -47 c28 -61 100 -133 161 -161 l47 -22 950
-3 c876 -2 954 -1 995 15 104 40 166 101 202 201 16 43 17 122 15 997 l-2 950
-23 48 c-26 55 -92 125 -137 146 -17 7 -39 18 -50 25 -14 8 -248 12 -826 14
-443 1 -807 0 -810 -2z m814 -568 c334 -91 532 -395 483 -739 -34 -243 -236
-461 -486 -526 -82 -21 -235 -21 -315 1 -284 75 -480 318 -491 606 -4 121 15
209 69 320 74 149 204 262 382 329 88 33 254 38 358 9z"/>
<path d="M1143 4315 c-52 -22 -66 -63 -64 -189 1 -90 5 -114 21 -142 33 -53
102 -68 157 -34 50 30 61 62 61 176 0 116 -13 155 -60 184 -38 23 -70 25 -115
5z"/>
<path d="M2940 5103 c-99 -34 -182 -121 -209 -218 -8 -29 -10 -689 -8 -2345
l2 -2305 31 -60 c35 -67 110 -136 171 -157 29 -10 217 -13 833 -15 892 -3 858
-5 1009 69 65 32 102 60 160 118 90 90 138 174 179 311 4 13 8 931 9 2039 1
1686 -1 2025 -12 2079 -8 35 -33 102 -57 149 -73 149 -228 281 -378 323 -25 7
-52 15 -60 18 -8 3 -377 6 -820 8 -712 2 -810 0 -850 -14z m1060 -488 c33 -17
56 -43 71 -80 9 -23 12 -226 13 -857 1 -454 3 -828 6 -830 3 -2 25 -13 50 -24
67 -28 170 -136 207 -214 37 -78 44 -105 49 -194 10 -170 -96 -358 -243 -432
-32 -16 -60 -30 -63 -32 -3 -2 -5 -308 -5 -680 0 -657 -1 -678 -20 -711 -66
-113 -222 -112 -282 2 -15 29 -17 95 -18 705 l0 673 -68 37 c-158 87 -246 227
-253 403 -3 83 8 148 37 215 39 88 133 187 216 227 21 10 45 22 53 26 13 7 15
112 15 837 1 740 3 832 17 859 43 81 138 111 218 70z"/>
<path d="M3845 2537 c-106 -60 -112 -196 -11 -271 43 -32 132 -29 178 6 49 38
72 89 64 146 -16 115 -132 175 -231 119z"/>
<path d="M220 2382 c-94 -35 -140 -75 -187 -164 l-28 -53 0 -825 0 -825 23
-65 c62 -173 174 -305 322 -377 153 -75 112 -72 990 -73 773 0 787 0 849 21
74 25 144 89 181 164 l25 50 2 945 c2 666 0 957 -8 985 -17 60 -73 140 -122
174 -91 63 -69 61 -1082 60 -831 -1 -924 -2 -965 -17z m710 -555 c25 -8 90
-43 145 -79 55 -35 201 -129 325 -208 262 -166 293 -190 315 -233 23 -45 31
-139 14 -179 -32 -80 -41 -86 -662 -481 -118 -76 -143 -85 -210 -83 -80 3
-143 44 -180 116 l-27 54 0 469 c1 456 1 470 22 511 51 100 153 145 258 113z"/>
</g>
</svg>
